<svg width="106" height="13" viewBox="0 0 106 13" fill="none" xmlns="http://www.w3.org/2000/svg">
<g id="logo">
<g id="XMLID_234_">
<path id="XMLID_243_" d="M8.33278 1.46767V7.33465C8.33278 9.2903 7.48249 10.0981 5.4418 10.0981C3.40112 10.0981 2.55083 9.2903 2.55083 7.33465V1.21259H0.595174C0.467631 1.21259 0.340088 1.34013 0.340088 1.46767V7.41967C0.340088 10.6933 2.42329 11.8412 5.4418 11.8412C8.46032 11.8412 10.5435 10.6933 10.5435 7.41967V1.21259H8.58786C8.46032 1.21259 8.33278 1.29761 8.33278 1.46767Z" fill="black"/>
<path id="XMLID_242_" d="M36.7749 2.91316C36.9449 2.91316 37.03 2.87064 37.0725 2.7431L37.6252 1.34013C37.6677 1.2551 37.6252 1.21259 37.5401 1.21259H29.6325C28.9097 1.21259 28.6121 1.42516 28.6121 1.93533V11.0334C28.6121 11.4585 28.8247 11.6711 29.3774 11.6711H36.7324C36.9024 11.6711 36.9874 11.6286 37.03 11.501L37.5826 10.0981C37.6252 10.013 37.5826 9.97053 37.4976 9.97053H30.7804V8.0999C30.7804 7.46219 31.1205 7.16459 32.0983 7.16459H35.0318C35.2018 7.16459 35.2869 7.12207 35.3294 6.99453L35.8821 5.63407C35.9246 5.54904 35.8821 5.50653 35.797 5.50653H30.8229V2.87064H36.7749V2.91316Z" fill="black"/>
<path id="XMLID_238_" fill-rule="evenodd" clip-rule="evenodd" d="M22.8727 6.14424C23.723 5.67659 24.0631 4.86882 24.0631 3.84847C24.0631 1.5527 22.1924 1.21259 20.2368 1.21259H15.7728C15.05 1.21259 14.7524 1.42516 14.7524 1.93533V11.0334C14.7524 11.4585 14.965 11.6711 15.5177 11.6711H21.002C23.0852 11.6711 24.5307 10.8633 24.5307 8.78013C24.5732 7.5047 24.0631 6.44184 22.8727 6.14424ZM16.9632 2.87064H20.4068C21.5547 2.87064 21.8948 3.29579 21.8948 4.18859C21.8948 5.08139 21.5547 5.50653 20.4068 5.50653H16.9632V2.87064ZM16.9632 9.97053H20.832C22.0649 9.97053 22.405 9.54539 22.405 8.56756C22.405 7.58973 22.0649 7.12207 20.832 7.12207H18.2811C17.3033 7.12207 16.9632 7.41967 16.9632 8.05739V9.97053Z" fill="black"/>
<path id="XMLID_235_" fill-rule="evenodd" clip-rule="evenodd" d="M48.9764 7.46219L51.3147 11.501C51.3572 11.5436 51.3572 11.6711 51.2722 11.6711H49.274C49.104 11.6711 49.0615 11.6286 48.9764 11.501L46.8507 7.67476H44.9376C43.9598 7.67476 43.6196 7.97236 43.6196 8.61007V11.6711H41.7065C41.579 11.6711 41.4514 11.5436 41.4514 11.416V1.93533C41.4514 1.42516 41.749 1.21259 42.4718 1.21259H46.9358C49.5291 1.21259 51.1022 1.89281 51.1022 4.44367C51.1022 6.39933 50.1243 7.16459 48.9764 7.46219ZM43.5771 6.05922H47.2334C48.5938 6.05922 48.8914 5.54904 48.8914 4.44367C48.8914 3.38082 48.5938 2.87064 47.2334 2.87064H43.5771V6.05922Z" fill="black"/>
</g>
<g id="XMLID_224_">
<path id="XMLID_232_" d="M67.5977 10.7358L67.5552 11.6711H59.8176V1.21259H67.2576L67.3001 2.19041H60.8805V5.80413H66.4073V6.65442H60.8805V10.7358H67.5977Z" fill="#57AD56" stroke="#57AD56" stroke-width="0.25"/>
<g id="XMLID_229_">
<path fill-rule="evenodd" clip-rule="evenodd" d="M74.0174 8.95019H80.182L81.3724 11.6711H82.5628L77.7587 1.21259H76.5258L71.6791 11.6711H72.827L74.0174 8.95019ZM74.4001 8.05739L76.6533 2.99819L77.0785 1.93533H77.121L77.5461 2.99819L79.7569 8.05739H74.4001Z" fill="#57AD56"/>
<path d="M80.182 8.95019L80.2965 8.90009L80.2638 8.82519H80.182V8.95019ZM74.0174 8.95019V8.82519H73.9357L73.9029 8.90009L74.0174 8.95019ZM81.3724 11.6711L81.2579 11.7212L81.2906 11.7961H81.3724V11.6711ZM82.5628 11.6711V11.7961H82.7578L82.6764 11.6189L82.5628 11.6711ZM77.7587 1.21259L77.8723 1.16041L77.8388 1.08759H77.7587V1.21259ZM76.5258 1.21259V1.08759H76.4459L76.4124 1.16003L76.5258 1.21259ZM71.6791 11.6711L71.5657 11.6185L71.4834 11.7961H71.6791V11.6711ZM72.827 11.6711V11.7961H72.9088L72.9415 11.7212L72.827 11.6711ZM76.6533 2.99819L76.7676 3.04908L76.7694 3.04461L76.6533 2.99819ZM74.4001 8.05739L74.2859 8.00653L74.2075 8.18239H74.4001V8.05739ZM77.0785 1.93533V1.81033H76.9938L76.9624 1.8889L77.0785 1.93533ZM77.121 1.93533L77.237 1.8889L77.2056 1.81033H77.121V1.93533ZM77.5461 2.99819L77.43 3.04463L77.4316 3.04824L77.5461 2.99819ZM79.7569 8.05739V8.18239H79.9479L79.8714 8.00734L79.7569 8.05739ZM80.182 8.82519H74.0174V9.07519H80.182V8.82519ZM81.4869 11.621L80.2965 8.90009L80.0675 9.00029L81.2579 11.7212L81.4869 11.621ZM82.5628 11.5461H81.3724V11.7961H82.5628V11.5461ZM77.6451 1.26476L82.4492 11.7233L82.6764 11.6189L77.8723 1.16041L77.6451 1.26476ZM76.5258 1.33759H77.7587V1.08759H76.5258V1.33759ZM71.7926 11.7237L76.6392 1.26514L76.4124 1.16003L71.5657 11.6185L71.7926 11.7237ZM72.827 11.5461H71.6791V11.7961H72.827V11.5461ZM73.9029 8.90009L72.7125 11.621L72.9415 11.7212L74.1319 9.00029L73.9029 8.90009ZM76.5391 2.94733L74.2859 8.00653L74.5142 8.10824L76.7675 3.04904L76.5391 2.94733ZM76.9624 1.8889L76.5373 2.95176L76.7694 3.04461L77.1945 1.98175L76.9624 1.8889ZM77.121 1.81033H77.0785V2.06033H77.121V1.81033ZM77.6622 2.95176L77.237 1.8889L77.0049 1.98175L77.4301 3.04461L77.6622 2.95176ZM79.8714 8.00734L77.6607 2.94813L77.4316 3.04824L79.6423 8.10744L79.8714 8.00734ZM74.4001 8.18239H79.7569V7.93239H74.4001V8.18239Z" fill="#57AD56"/>
</g>
<path id="XMLID_227_" d="M90.2154 2.19041V11.6711H89.1525V2.19041H85.2412L85.2837 1.21259H94.1692V2.19041H90.2154Z" fill="#57AD56" stroke="#57AD56" stroke-width="0.25"/>
<path id="XMLID_225_" d="M101.737 11.8837C100.291 11.8837 99.1434 11.5435 98.2081 10.9909L98.3781 10.0555C99.356 10.6082 100.461 10.9483 101.779 10.9483C103.735 10.9483 104.755 10.0555 104.755 8.78012C104.755 6.01669 98.3781 7.46217 98.3781 3.89097C98.3781 2.36046 99.526 1 102.204 1C103.437 1 104.543 1.21257 105.436 1.63771L105.265 2.53051C104.288 2.14789 103.352 1.93531 102.247 1.93531C100.164 1.93531 99.3985 2.87063 99.3985 3.80594C99.3985 6.44183 105.776 4.95383 105.776 8.69509C105.733 10.5657 104.373 11.8837 101.737 11.8837Z" fill="#57AD56" stroke="#57AD56" stroke-width="0.25"/>
</g>
</g>
</svg>
